<svg xmlns="http://www.w3.org/2000/svg" version="1.1" xmlns:xlink="http://www.w3.org/1999/xlink" xmlns:svgjs="http://svgjs.dev/svgjs" width="1440" height="1000" preserveAspectRatio="none" viewBox="0 0 1440 1000"><g mask="url(&quot;#SvgjsMask12295&quot;)" fill="none"><rect width="1440" height="1000" x="0" y="0" fill="url(&quot;#SvgjsRadialGradient12296&quot;)"></rect><use xlink:href="#SvgjsSymbol12303" x="0" y="0"></use><use xlink:href="#SvgjsSymbol12303" x="0" y="720"></use><use xlink:href="#SvgjsSymbol12303" x="720" y="0"></use><use xlink:href="#SvgjsSymbol12303" x="720" y="720"></use></g><defs><mask id="SvgjsMask12295"><rect width="1440" height="1000" fill="#ffffff"></rect></mask><radialGradient cx="50%" cy="50%" r="876.58" gradientUnits="userSpaceOnUse" id="SvgjsRadialGradient12296"><stop stop-color="rgba(36, 74, 117, 1)" offset="0"></stop><stop stop-color="rgba(14, 42, 71, 1)" offset="1"></stop></radialGradient><path d="M-1 0 a1 1 0 1 0 2 0 a1 1 0 1 0 -2 0z" id="SvgjsPath12301"></path><path d="M-3 0 a3 3 0 1 0 6 0 a3 3 0 1 0 -6 0z" id="SvgjsPath12298"></path><path d="M-5 0 a5 5 0 1 0 10 0 a5 5 0 1 0 -10 0z" id="SvgjsPath12299"></path><path d="M2 -2 L-2 2z" id="SvgjsPath12300"></path><path d="M6 -6 L-6 6z" id="SvgjsPath12297"></path><path d="M30 -30 L-30 30z" id="SvgjsPath12302"></path></defs><symbol id="SvgjsSymbol12303"><use xlink:href="#SvgjsPath12297" x="30" y="30" stroke="rgba(71, 80, 182, 1)"></use><use xlink:href="#SvgjsPath12298" x="30" y="90" stroke="rgba(109, 117, 199, 1)"></use><use xlink:href="#SvgjsPath12299" x="30" y="150" stroke="rgba(49, 101, 157, 1)"></use><use xlink:href="#SvgjsPath12297" x="30" y="210" stroke="rgba(49, 101, 157, 1)"></use><use xlink:href="#SvgjsPath12300" x="30" y="270" stroke="rgba(164, 164, 72, 1)"></use><use xlink:href="#SvgjsPath12299" x="30" y="330" stroke="rgba(95, 100, 153, 1)"></use><use xlink:href="#SvgjsPath12299" x="30" y="390" stroke="rgba(164, 164, 72, 1)"></use><use xlink:href="#SvgjsPath12299" x="30" y="450" stroke="rgba(95, 100, 153, 1)"></use><use xlink:href="#SvgjsPath12299" x="30" y="510" stroke="rgba(109, 117, 199, 1)"></use><use xlink:href="#SvgjsPath12299" x="30" y="570" stroke="rgba(71, 80, 182, 1)"></use><use xlink:href="#SvgjsPath12299" x="30" y="630" stroke="rgba(164, 164, 72, 1)"></use><use xlink:href="#SvgjsPath12300" x="30" y="690" stroke="rgba(164, 164, 72, 1)"></use><use xlink:href="#SvgjsPath12299" x="90" y="30" stroke="rgba(71, 80, 182, 1)"></use><use xlink:href="#SvgjsPath12299" x="90" y="90" stroke="rgba(49, 101, 157, 1)"></use><use xlink:href="#SvgjsPath12297" x="90" y="150" stroke="rgba(95, 100, 153, 1)"></use><use xlink:href="#SvgjsPath12300" x="90" y="210" stroke="rgba(164, 164, 72, 1)"></use><use xlink:href="#SvgjsPath12301" x="90" y="270" stroke="rgba(95, 100, 153, 1)"></use><use xlink:href="#SvgjsPath12297" x="90" y="330" stroke="rgba(71, 80, 182, 1)"></use><use xlink:href="#SvgjsPath12301" x="90" y="390" stroke="rgba(49, 101, 157, 1)"></use><use xlink:href="#SvgjsPath12298" x="90" y="450" stroke="rgba(95, 100, 153, 1)"></use><use xlink:href="#SvgjsPath12297" x="90" y="510" stroke="rgba(49, 101, 157, 1)"></use><use xlink:href="#SvgjsPath12297" x="90" y="570" stroke="rgba(49, 101, 157, 1)"></use><use xlink:href="#SvgjsPath12299" x="90" y="630" stroke="rgba(164, 164, 72, 1)"></use><use xlink:href="#SvgjsPath12302" x="90" y="690" stroke="rgba(109, 117, 199, 1)" stroke-width="3"></use><use xlink:href="#SvgjsPath12299" x="150" y="30" stroke="rgba(164, 164, 72, 1)"></use><use xlink:href="#SvgjsPath12302" x="150" y="90" stroke="rgba(71, 80, 182, 1)" stroke-width="3"></use><use xlink:href="#SvgjsPath12297" x="150" y="150" stroke="rgba(95, 100, 153, 1)"></use><use xlink:href="#SvgjsPath12297" x="150" y="210" stroke="rgba(71, 80, 182, 1)"></use><use xlink:href="#SvgjsPath12301" x="150" y="270" stroke="rgba(71, 80, 182, 1)"></use><use xlink:href="#SvgjsPath12299" x="150" y="330" stroke="rgba(49, 101, 157, 1)"></use><use xlink:href="#SvgjsPath12299" x="150" y="390" stroke="rgba(95, 100, 153, 1)"></use><use xlink:href="#SvgjsPath12299" x="150" y="450" stroke="rgba(95, 100, 153, 1)"></use><use xlink:href="#SvgjsPath12299" x="150" y="510" stroke="rgba(164, 164, 72, 1)"></use><use xlink:href="#SvgjsPath12298" x="150" y="570" stroke="rgba(164, 164, 72, 1)"></use><use xlink:href="#SvgjsPath12298" x="150" y="630" stroke="rgba(95, 100, 153, 1)"></use><use xlink:href="#SvgjsPath12301" x="150" y="690" stroke="rgba(95, 100, 153, 1)"></use><use xlink:href="#SvgjsPath12299" x="210" y="30" stroke="rgba(49, 101, 157, 1)"></use><use xlink:href="#SvgjsPath12299" x="210" y="90" stroke="rgba(95, 100, 153, 1)"></use><use xlink:href="#SvgjsPath12302" x="210" y="150" stroke="rgba(71, 80, 182, 1)" stroke-width="3"></use><use xlink:href="#SvgjsPath12297" x="210" y="210" stroke="rgba(164, 164, 72, 1)"></use><use xlink:href="#SvgjsPath12299" x="210" y="270" stroke="rgba(95, 100, 153, 1)"></use><use xlink:href="#SvgjsPath12297" x="210" y="330" stroke="rgba(95, 100, 153, 1)"></use><use xlink:href="#SvgjsPath12299" x="210" y="390" stroke="rgba(71, 80, 182, 1)"></use><use xlink:href="#SvgjsPath12297" x="210" y="450" stroke="rgba(71, 80, 182, 1)"></use><use xlink:href="#SvgjsPath12300" x="210" y="510" stroke="rgba(71, 80, 182, 1)"></use><use xlink:href="#SvgjsPath12300" x="210" y="570" stroke="rgba(49, 101, 157, 1)"></use><use xlink:href="#SvgjsPath12300" x="210" y="630" stroke="rgba(49, 101, 157, 1)"></use><use xlink:href="#SvgjsPath12297" x="210" y="690" stroke="rgba(109, 117, 199, 1)"></use><use xlink:href="#SvgjsPath12297" x="270" y="30" stroke="rgba(164, 164, 72, 1)"></use><use xlink:href="#SvgjsPath12297" x="270" y="90" stroke="rgba(71, 80, 182, 1)"></use><use xlink:href="#SvgjsPath12300" x="270" y="150" stroke="rgba(164, 164, 72, 1)"></use><use xlink:href="#SvgjsPath12302" x="270" y="210" stroke="rgba(71, 80, 182, 1)" stroke-width="3"></use><use xlink:href="#SvgjsPath12297" x="270" y="270" stroke="rgba(49, 101, 157, 1)"></use><use xlink:href="#SvgjsPath12297" x="270" y="330" stroke="rgba(49, 101, 157, 1)"></use><use xlink:href="#SvgjsPath12300" x="270" y="390" stroke="rgba(109, 117, 199, 1)"></use><use xlink:href="#SvgjsPath12299" x="270" y="450" stroke="rgba(164, 164, 72, 1)"></use><use xlink:href="#SvgjsPath12299" x="270" y="510" stroke="rgba(109, 117, 199, 1)"></use><use xlink:href="#SvgjsPath12297" x="270" y="570" stroke="rgba(71, 80, 182, 1)"></use><use xlink:href="#SvgjsPath12301" x="270" y="630" stroke="rgba(49, 101, 157, 1)"></use><use xlink:href="#SvgjsPath12297" x="270" y="690" stroke="rgba(109, 117, 199, 1)"></use><use xlink:href="#SvgjsPath12299" x="330" y="30" stroke="rgba(109, 117, 199, 1)"></use><use xlink:href="#SvgjsPath12297" x="330" y="90" stroke="rgba(109, 117, 199, 1)"></use><use xlink:href="#SvgjsPath12300" x="330" y="150" stroke="rgba(71, 80, 182, 1)"></use><use xlink:href="#SvgjsPath12297" x="330" y="210" stroke="rgba(71, 80, 182, 1)"></use><use xlink:href="#SvgjsPath12297" x="330" y="270" stroke="rgba(49, 101, 157, 1)"></use><use xlink:href="#SvgjsPath12300" x="330" y="330" stroke="rgba(164, 164, 72, 1)"></use><use xlink:href="#SvgjsPath12299" x="330" y="390" stroke="rgba(95, 100, 153, 1)"></use><use xlink:href="#SvgjsPath12301" x="330" y="450" stroke="rgba(164, 164, 72, 1)"></use><use xlink:href="#SvgjsPath12299" x="330" y="510" stroke="rgba(164, 164, 72, 1)"></use><use xlink:href="#SvgjsPath12297" x="330" y="570" stroke="rgba(95, 100, 153, 1)"></use><use xlink:href="#SvgjsPath12298" x="330" y="630" stroke="rgba(109, 117, 199, 1)"></use><use xlink:href="#SvgjsPath12299" x="330" y="690" stroke="rgba(109, 117, 199, 1)"></use><use xlink:href="#SvgjsPath12297" x="390" y="30" stroke="rgba(164, 164, 72, 1)"></use><use xlink:href="#SvgjsPath12300" x="390" y="90" stroke="rgba(71, 80, 182, 1)"></use><use xlink:href="#SvgjsPath12299" x="390" y="150" stroke="rgba(164, 164, 72, 1)"></use><use xlink:href="#SvgjsPath12298" x="390" y="210" stroke="rgba(109, 117, 199, 1)"></use><use xlink:href="#SvgjsPath12301" x="390" y="270" stroke="rgba(71, 80, 182, 1)"></use><use xlink:href="#SvgjsPath12297" x="390" y="330" stroke="rgba(164, 164, 72, 1)"></use><use xlink:href="#SvgjsPath12299" x="390" y="390" stroke="rgba(71, 80, 182, 1)"></use><use xlink:href="#SvgjsPath12297" x="390" y="450" stroke="rgba(164, 164, 72, 1)"></use><use xlink:href="#SvgjsPath12297" x="390" y="510" stroke="rgba(95, 100, 153, 1)"></use><use xlink:href="#SvgjsPath12299" x="390" y="570" stroke="rgba(95, 100, 153, 1)"></use><use xlink:href="#SvgjsPath12299" x="390" y="630" stroke="rgba(109, 117, 199, 1)"></use><use xlink:href="#SvgjsPath12299" x="390" y="690" stroke="rgba(49, 101, 157, 1)"></use><use xlink:href="#SvgjsPath12297" x="450" y="30" stroke="rgba(109, 117, 199, 1)"></use><use xlink:href="#SvgjsPath12297" x="450" y="90" stroke="rgba(49, 101, 157, 1)"></use><use xlink:href="#SvgjsPath12299" x="450" y="150" stroke="rgba(49, 101, 157, 1)"></use><use xlink:href="#SvgjsPath12301" x="450" y="210" stroke="rgba(164, 164, 72, 1)"></use><use xlink:href="#SvgjsPath12299" x="450" y="270" stroke="rgba(109, 117, 199, 1)"></use><use xlink:href="#SvgjsPath12298" x="450" y="330" stroke="rgba(95, 100, 153, 1)"></use><use xlink:href="#SvgjsPath12302" x="450" y="390" stroke="rgba(71, 80, 182, 1)" stroke-width="3"></use><use xlink:href="#SvgjsPath12300" x="450" y="450" stroke="rgba(49, 101, 157, 1)"></use><use xlink:href="#SvgjsPath12299" x="450" y="510" stroke="rgba(49, 101, 157, 1)"></use><use xlink:href="#SvgjsPath12298" x="450" y="570" stroke="rgba(109, 117, 199, 1)"></use><use xlink:href="#SvgjsPath12299" x="450" y="630" stroke="rgba(49, 101, 157, 1)"></use><use xlink:href="#SvgjsPath12298" x="450" y="690" stroke="rgba(109, 117, 199, 1)"></use><use xlink:href="#SvgjsPath12299" x="510" y="30" stroke="rgba(95, 100, 153, 1)"></use><use xlink:href="#SvgjsPath12301" x="510" y="90" stroke="rgba(164, 164, 72, 1)"></use><use xlink:href="#SvgjsPath12299" x="510" y="150" stroke="rgba(164, 164, 72, 1)"></use><use xlink:href="#SvgjsPath12299" x="510" y="210" stroke="rgba(109, 117, 199, 1)"></use><use xlink:href="#SvgjsPath12298" x="510" y="270" stroke="rgba(49, 101, 157, 1)"></use><use xlink:href="#SvgjsPath12297" x="510" y="330" stroke="rgba(164, 164, 72, 1)"></use><use xlink:href="#SvgjsPath12301" x="510" y="390" stroke="rgba(109, 117, 199, 1)"></use><use xlink:href="#SvgjsPath12302" x="510" y="450" stroke="rgba(49, 101, 157, 1)" stroke-width="3"></use><use xlink:href="#SvgjsPath12299" x="510" y="510" stroke="rgba(49, 101, 157, 1)"></use><use xlink:href="#SvgjsPath12297" x="510" y="570" stroke="rgba(109, 117, 199, 1)"></use><use xlink:href="#SvgjsPath12297" x="510" y="630" stroke="rgba(164, 164, 72, 1)"></use><use xlink:href="#SvgjsPath12297" x="510" y="690" stroke="rgba(49, 101, 157, 1)"></use><use xlink:href="#SvgjsPath12302" x="570" y="30" stroke="rgba(71, 80, 182, 1)" stroke-width="3"></use><use xlink:href="#SvgjsPath12300" x="570" y="90" stroke="rgba(109, 117, 199, 1)"></use><use xlink:href="#SvgjsPath12301" x="570" y="150" stroke="rgba(109, 117, 199, 1)"></use><use xlink:href="#SvgjsPath12300" x="570" y="210" stroke="rgba(109, 117, 199, 1)"></use><use xlink:href="#SvgjsPath12297" x="570" y="270" stroke="rgba(71, 80, 182, 1)"></use><use xlink:href="#SvgjsPath12300" x="570" y="330" stroke="rgba(164, 164, 72, 1)"></use><use xlink:href="#SvgjsPath12300" x="570" y="390" stroke="rgba(109, 117, 199, 1)"></use><use xlink:href="#SvgjsPath12297" x="570" y="450" stroke="rgba(109, 117, 199, 1)"></use><use xlink:href="#SvgjsPath12300" x="570" y="510" stroke="rgba(49, 101, 157, 1)"></use><use xlink:href="#SvgjsPath12299" x="570" y="570" stroke="rgba(95, 100, 153, 1)"></use><use xlink:href="#SvgjsPath12299" x="570" y="630" stroke="rgba(95, 100, 153, 1)"></use><use xlink:href="#SvgjsPath12300" x="570" y="690" stroke="rgba(95, 100, 153, 1)"></use><use xlink:href="#SvgjsPath12297" x="630" y="30" stroke="rgba(109, 117, 199, 1)"></use><use xlink:href="#SvgjsPath12299" x="630" y="90" stroke="rgba(164, 164, 72, 1)"></use><use xlink:href="#SvgjsPath12297" x="630" y="150" stroke="rgba(95, 100, 153, 1)"></use><use xlink:href="#SvgjsPath12299" x="630" y="210" stroke="rgba(109, 117, 199, 1)"></use><use xlink:href="#SvgjsPath12299" x="630" y="270" stroke="rgba(71, 80, 182, 1)"></use><use xlink:href="#SvgjsPath12299" x="630" y="330" stroke="rgba(71, 80, 182, 1)"></use><use xlink:href="#SvgjsPath12297" x="630" y="390" stroke="rgba(49, 101, 157, 1)"></use><use xlink:href="#SvgjsPath12298" x="630" y="450" stroke="rgba(109, 117, 199, 1)"></use><use xlink:href="#SvgjsPath12299" x="630" y="510" stroke="rgba(109, 117, 199, 1)"></use><use xlink:href="#SvgjsPath12299" x="630" y="570" stroke="rgba(71, 80, 182, 1)"></use><use xlink:href="#SvgjsPath12300" x="630" y="630" stroke="rgba(109, 117, 199, 1)"></use><use xlink:href="#SvgjsPath12299" x="630" y="690" stroke="rgba(164, 164, 72, 1)"></use><use xlink:href="#SvgjsPath12300" x="690" y="30" stroke="rgba(71, 80, 182, 1)"></use><use xlink:href="#SvgjsPath12300" x="690" y="90" stroke="rgba(49, 101, 157, 1)"></use><use xlink:href="#SvgjsPath12300" x="690" y="150" stroke="rgba(71, 80, 182, 1)"></use><use xlink:href="#SvgjsPath12302" x="690" y="210" stroke="rgba(109, 117, 199, 1)" stroke-width="3"></use><use xlink:href="#SvgjsPath12299" x="690" y="270" stroke="rgba(95, 100, 153, 1)"></use><use xlink:href="#SvgjsPath12298" x="690" y="330" stroke="rgba(164, 164, 72, 1)"></use><use xlink:href="#SvgjsPath12298" x="690" y="390" stroke="rgba(71, 80, 182, 1)"></use><use xlink:href="#SvgjsPath12300" x="690" y="450" stroke="rgba(49, 101, 157, 1)"></use><use xlink:href="#SvgjsPath12297" x="690" y="510" stroke="rgba(71, 80, 182, 1)"></use><use xlink:href="#SvgjsPath12299" x="690" y="570" stroke="rgba(95, 100, 153, 1)"></use><use xlink:href="#SvgjsPath12302" x="690" y="630" stroke="rgba(109, 117, 199, 1)" stroke-width="3"></use><use xlink:href="#SvgjsPath12299" x="690" y="690" stroke="rgba(49, 101, 157, 1)"></use></symbol></svg>